<?xml version="1.0" standalone="no"?>
<!DOCTYPE svg PUBLIC "-//W3C//DTD SVG 20010904//EN"
 "http://www.w3.org/TR/2001/REC-SVG-20010904/DTD/svg10.dtd">
<svg version="1.0" xmlns="http://www.w3.org/2000/svg"
 width="360.000000pt" height="240.000000pt" viewBox="0 0 360.000000 240.000000"
 preserveAspectRatio="xMidYMid meet">

<g transform="translate(0.000000,240.000000) scale(0.100000,-0.100000)"
fill="#000000" stroke="none">
<path d="M1650 2206 c-123 -32 -239 -102 -324 -197 -57 -64 -131 -212 -145
-293 -6 -33 -11 -117 -11 -187 l0 -127 -44 -6 c-29 -5 -52 -16 -72 -37 l-29
-30 -3 -527 c-3 -560 -2 -565 46 -602 24 -19 44 -20 732 -20 688 0 708 1 732
20 48 37 49 42 46 602 l-3 527 -29 30 c-20 20 -43 32 -71 37 l-43 6 -5 161
c-5 177 -14 218 -79 339 -66 124 -198 235 -338 285 -92 32 -270 42 -360 19z
m305 -281 c155 -74 225 -211 225 -442 l0 -83 -380 0 -380 0 0 83 c0 250 81
390 263 458 77 29 192 22 272 -16z m-82 -859 c94 -39 134 -166 78 -245 -19
-26 -21 -44 -21 -180 0 -148 -1 -153 -25 -176 -21 -22 -33 -25 -103 -25 -65 0
-84 4 -106 21 l-26 20 0 156 c0 140 -2 158 -21 184 -41 59 -34 138 19 201 47
55 134 74 205 44z"/>
</g>
</svg>
