<?xml version="1.0" standalone="no"?>
<!DOCTYPE svg PUBLIC "-//W3C//DTD SVG 20010904//EN"
 "http://www.w3.org/TR/2001/REC-SVG-20010904/DTD/svg10.dtd">
<svg version="1.0" xmlns="http://www.w3.org/2000/svg"
 width="360.000000pt" height="240.000000pt" viewBox="0 0 360.000000 240.000000"
 preserveAspectRatio="xMidYMid meet">

<g transform="translate(0.000000,240.000000) scale(0.100000,-0.100000)"
fill="#000000" stroke="none">
<path d="M2085 2090 c-155 -68 -257 -118 -269 -132 -17 -21 -18 -39 -13 -263
4 -198 9 -254 26 -322 40 -159 127 -304 243 -405 67 -59 246 -183 279 -193 32
-11 61 1 155 63 225 148 342 288 403 482 31 100 33 117 38 382 5 241 5 247
-16 264 -39 34 -521 234 -560 233 -22 -1 -133 -43 -286 -109z m549 -331 c52
-41 42 -64 -129 -279 -85 -107 -164 -199 -174 -204 -45 -20 -68 0 -156 132
-90 135 -100 167 -65 202 25 25 74 26 98 2 9 -9 35 -45 57 -80 22 -34 43 -61
46 -59 3 1 52 61 109 132 147 187 160 196 214 154z"/>
<path d="M715 1750 c-57 -37 -65 -67 -65 -242 l0 -158 516 0 516 0 -6 28 c-3
15 -11 109 -17 210 l-12 182 -451 0 c-432 0 -452 -1 -481 -20z"/>
<path d="M650 680 c0 -406 2 -418 58 -459 l30 -21 1063 0 1062 0 33 25 c20 15
38 41 44 63 7 24 10 162 8 402 l-3 365 -32 -45 c-72 -103 -249 -254 -402 -342
-128 -73 -190 -61 -388 76 -97 67 -228 188 -279 257 l-36 49 -579 0 -579 0 0
-370z m695 65 c30 -29 32 -64 6 -96 -19 -23 -24 -24 -188 -27 -160 -3 -170 -2
-196 18 -34 27 -36 74 -5 107 21 22 27 23 190 23 166 0 169 0 193 -25z"/>
</g>
</svg>
