<?xml version="1.0" standalone="no"?>
<!DOCTYPE svg PUBLIC "-//W3C//DTD SVG 20010904//EN"
 "http://www.w3.org/TR/2001/REC-SVG-20010904/DTD/svg10.dtd">
<svg version="1.0" xmlns="http://www.w3.org/2000/svg"
 width="360.000000pt" height="240.000000pt" viewBox="0 0 360.000000 240.000000"
 preserveAspectRatio="xMidYMid meet">

<g transform="translate(0.000000,240.000000) scale(0.100000,-0.100000)"
fill="#000000" stroke="none">
<path d="M1685 2220 c-265 -31 -515 -166 -677 -368 -156 -192 -230 -399 -230
-647 0 -144 14 -224 62 -355 156 -429 600 -708 1050 -660 455 47 808 365 907
815 20 91 20 296 0 395 -93 463 -480 797 -952 823 -49 3 -121 1 -160 -3z m286
-86 c317 -60 591 -289 708 -594 103 -266 75 -567 -75 -825 -64 -108 -211 -255
-319 -319 -313 -183 -667 -183 -980 0 -108 64 -255 211 -319 319 -183 313
-183 667 0 980 60 103 211 255 311 314 211 125 445 169 674 125z"/>
<path d="M1598 1689 c-53 -5 -108 -13 -122 -19 -26 -10 -77 -81 -117 -163
l-23 -46 -60 -3 c-53 -3 -61 -6 -61 -23 0 -17 8 -20 48 -23 62 -4 60 -18 -4
-24 -45 -5 -55 -11 -105 -61 -54 -57 -62 -71 -44 -82 5 -3 78 -15 162 -26 84
-11 163 -22 176 -25 25 -5 61 -71 62 -111 l0 -23 290 0 290 0 0 25 c0 32 22
86 41 101 8 7 72 19 143 28 158 21 226 35 226 47 0 5 -24 35 -54 66 -50 50
-60 56 -105 61 -64 6 -66 20 -3 24 39 3 47 6 47 23 0 17 -8 20 -61 23 l-60 3
-23 46 c-38 79 -90 153 -114 162 -58 22 -380 35 -529 20z m417 -51 c50 -6 95
-14 100 -19 16 -12 106 -185 100 -191 -3 -2 -40 2 -82 10 -109 21 -557 21
-666 0 -42 -8 -79 -12 -82 -10 -10 10 89 184 109 193 56 25 356 35 521 17z m6
-468 c28 -15 24 -49 -7 -60 -14 -6 -110 -10 -214 -10 -104 0 -200 4 -214 10
-30 11 -35 44 -8 59 23 14 417 14 443 1z"/>
<path d="M1090 1137 c0 -43 1 -45 33 -50 17 -3 96 -9 175 -13 129 -6 142 -5
142 10 0 40 -19 56 -68 56 -52 0 -238 25 -265 36 -15 5 -17 0 -17 -39z"/>
<path d="M2435 1169 c-22 -5 -92 -15 -155 -22 l-115 -13 -3 -33 -3 -33 138 6
c76 4 155 9 176 12 36 6 37 7 37 50 0 49 -2 49 -75 33z"/>
<path d="M1092 890 l-3 -131 30 -29 c28 -28 34 -30 111 -30 118 0 143 16 152
99 l3 24 418 1 417 1 0 -32 c0 -73 33 -93 150 -93 77 0 83 2 111 30 l30 30 -3
130 c-2 71 -5 130 -8 130 -3 0 -104 -7 -225 -15 -121 -8 -335 -15 -475 -15
-140 0 -354 7 -475 15 -121 8 -222 15 -225 15 -3 0 -6 -59 -8 -130z"/>
</g>
</svg>
